<?xml version="1.0" encoding="UTF-8"?><svg xmlns="http://www.w3.org/2000/svg" xmlns:xlink="http://www.w3.org/1999/xlink" fill-opacity="1" color-rendering="auto" color-interpolation="auto" text-rendering="auto" stroke="black" stroke-linecap="square" width="269" stroke-miterlimit="10" shape-rendering="auto" stroke-opacity="1" fill="black" stroke-dasharray="none" font-weight="normal" stroke-width="1" height="402" font-family="'Dialog'" font-style="normal" stroke-linejoin="miter" font-size="12px" stroke-dashoffset="0" image-rendering="auto">
  <!--Generated by ySVG 2.5-->
  <defs id="genericDefs"/>
  <g>
    <defs id="defs1">
      <clipPath clipPathUnits="userSpaceOnUse" id="clipPath1">
        <path d="M0 0 L269 0 L269 402 L0 402 L0 0 Z"/>
      </clipPath>
      <clipPath clipPathUnits="userSpaceOnUse" id="clipPath2">
        <path d="M153 23 L422 23 L422 425 L153 425 L153 23 Z"/>
      </clipPath>
    </defs>
    <g fill="white" text-rendering="geometricPrecision" shape-rendering="geometricPrecision" transform="translate(-153,-23)" stroke="white">
      <rect x="153" width="269" height="402" y="23" clip-path="url(#clipPath2)" stroke="none"/>
    </g>
    <g fill="rgb(255,204,0)" text-rendering="geometricPrecision" shape-rendering="geometricPrecision" transform="matrix(1,0,0,1,-153,-23)" stroke="rgb(255,204,0)">
      <rect x="183.5" y="361.054" clip-path="url(#clipPath2)" width="208" rx="4" ry="4" height="48" stroke="none"/>
    </g>
    <g text-rendering="geometricPrecision" stroke-miterlimit="1.45" shape-rendering="geometricPrecision" font-family="sans-serif" transform="matrix(1,0,0,1,-153,-23)" stroke-linecap="butt">
      <text x="264.2617" xml:space="preserve" y="389.5891" clip-path="url(#clipPath2)" stroke="none">Arduino</text>
      <rect x="183.5" y="361.054" clip-path="url(#clipPath2)" fill="none" width="208" rx="4" ry="4" height="48"/>
    </g>
    <g fill="rgb(245,245,245)" text-rendering="geometricPrecision" shape-rendering="geometricPrecision" transform="matrix(1,0,0,1,-153,-23)" stroke="rgb(245,245,245)">
      <rect x="168.5" y="38.614" clip-path="url(#clipPath2)" width="238" rx="4" ry="4" height="132.386" stroke="none"/>
      <rect x="168.5" y="38.614" clip-path="url(#clipPath2)" fill="rgb(235,235,235)" width="238" height="21.666" stroke="none"/>
    </g>
    <g font-size="15px" stroke-linecap="butt" transform="matrix(1,0,0,1,-153,-23)" text-rendering="geometricPrecision" font-family="sans-serif" shape-rendering="geometricPrecision" stroke-miterlimit="1.45">
      <text x="283.7163" xml:space="preserve" y="55.1159" clip-path="url(#clipPath2)" stroke="none">Scratch 2 Offline</text>
      <rect x="168.5" y="38.614" clip-path="url(#clipPath2)" fill="none" width="238" stroke-dasharray="6,2" rx="4" ry="4" height="132.386"/>
    </g>
    <g fill="rgb(255,204,0)" text-rendering="geometricPrecision" shape-rendering="geometricPrecision" transform="matrix(1,0,0,1,-153,-23)" stroke="rgb(255,204,0)">
      <rect x="183.5" y="75.28" clip-path="url(#clipPath2)" width="208" rx="4" ry="4" height="65.72" stroke="none"/>
    </g>
    <g text-rendering="geometricPrecision" stroke-miterlimit="1.45" shape-rendering="geometricPrecision" font-family="sans-serif" transform="matrix(1,0,0,1,-153,-23)" stroke-linecap="butt">
      <text x="266.3857" xml:space="preserve" y="112.6752" clip-path="url(#clipPath2)" stroke="none">Scratch</text>
      <rect x="183.5" y="75.28" clip-path="url(#clipPath2)" fill="none" width="208" rx="4" ry="4" height="65.72"/>
    </g>
    <g fill="rgb(255,204,0)" text-rendering="geometricPrecision" shape-rendering="geometricPrecision" transform="matrix(1,0,0,1,-153,-23)" stroke="rgb(255,204,0)">
      <rect x="216.5" width="142" height="30" y="126" clip-path="url(#clipPath2)" stroke="none"/>
    </g>
    <g text-rendering="geometricPrecision" stroke-miterlimit="1.45" shape-rendering="geometricPrecision" font-family="sans-serif" transform="matrix(1,0,0,1,-153,-23)" stroke-linecap="butt">
      <text x="236.043" xml:space="preserve" y="145.5352" clip-path="url(#clipPath2)" stroke="none">Scratch Extension</text>
      <rect fill="none" x="216.5" width="142" height="30" y="126" clip-path="url(#clipPath2)"/>
    </g>
    <g fill="rgb(245,245,245)" text-rendering="geometricPrecision" shape-rendering="geometricPrecision" transform="matrix(1,0,0,1,-153,-23)" stroke="rgb(245,245,245)">
      <rect x="168.5" y="210.194" clip-path="url(#clipPath2)" width="238" rx="4" ry="4" height="111.666" stroke="none"/>
      <rect x="168.5" y="210.194" clip-path="url(#clipPath2)" fill="rgb(235,235,235)" width="238" height="21.666" stroke="none"/>
    </g>
    <g font-size="15px" stroke-linecap="butt" transform="matrix(1,0,0,1,-153,-23)" text-rendering="geometricPrecision" font-family="sans-serif" shape-rendering="geometricPrecision" stroke-miterlimit="1.45">
      <text x="262.813" xml:space="preserve" y="226.6959" clip-path="url(#clipPath2)" stroke="none">Helper App(Nodejs)</text>
      <rect x="168.5" y="210.194" clip-path="url(#clipPath2)" fill="none" width="238" stroke-dasharray="6,2" rx="4" ry="4" height="111.666"/>
    </g>
    <g fill="rgb(255,204,0)" text-rendering="geometricPrecision" shape-rendering="geometricPrecision" transform="matrix(1,0,0,1,-153,-23)" stroke="rgb(255,204,0)">
      <rect x="183.5" y="246.86" clip-path="url(#clipPath2)" width="208" rx="4" ry="4" height="30" stroke="none"/>
    </g>
    <g text-rendering="geometricPrecision" stroke-miterlimit="1.45" shape-rendering="geometricPrecision" font-family="sans-serif" transform="matrix(1,0,0,1,-153,-23)" stroke-linecap="butt">
      <text x="254.9951" xml:space="preserve" y="266.3951" clip-path="url(#clipPath2)" stroke="none">Http Server</text>
      <rect x="183.5" y="246.86" clip-path="url(#clipPath2)" fill="none" width="208" rx="4" ry="4" height="30"/>
    </g>
    <g fill="rgb(255,204,0)" text-rendering="geometricPrecision" shape-rendering="geometricPrecision" transform="matrix(1,0,0,1,-153,-23)" stroke="rgb(255,204,0)">
      <rect x="183.5" y="276.86" clip-path="url(#clipPath2)" width="208" rx="4" ry="4" height="30" stroke="none"/>
    </g>
    <g text-rendering="geometricPrecision" stroke-miterlimit="1.45" shape-rendering="geometricPrecision" font-family="sans-serif" transform="matrix(1,0,0,1,-153,-23)" stroke-linecap="butt">
      <text x="223.7939" xml:space="preserve" y="296.3951" clip-path="url(#clipPath2)" stroke="none">Serial Communication</text>
      <rect x="183.5" y="276.86" clip-path="url(#clipPath2)" fill="none" width="208" rx="4" ry="4" height="30"/>
      <path fill="none" d="M287.5 179.0305 L287.5 210.1911" clip-path="url(#clipPath2)"/>
      <path d="M287.5 171.0305 L282.5 183.0305 L287.5 180.0305 L292.5 183.0305 Z" clip-path="url(#clipPath2)" stroke="none"/>
      <path fill="none" d="M287.1617 329.8348 L287.1617 361.069" clip-path="url(#clipPath2)"/>
      <path d="M287.1617 321.8348 L282.1617 333.8348 L287.1617 330.8348 L292.1617 333.8348 Z" clip-path="url(#clipPath2)" stroke="none"/>
    </g>
  </g>
</svg>
